<svg xmlns="http://www.w3.org/2000/svg" xmlns:svg="http://www.w3.org/2000/svg" id="svg4696" width="816" height="595.2" fill="none" fill-rule="evenodd" stroke-linecap="square" stroke-miterlimit="3" class="st13" color-interpolation-filters="sRGB" font-size="12" overflow="visible" version="1.1" viewBox="0 0 612 446.4" xml:space="preserve"><metadata id="metadata4702"/><style id="style4219" type="text/css">.st1{fill:none;stroke:none;stroke-width:.25}.st2{fill:#000;font-family:Calibri;font-size:.833336em}.st3{fill:none}.st3,.st4{stroke:#000;stroke-linecap:round;stroke-linejoin:round;stroke-width:.5}.st5{fill:none;stroke:none;stroke-linecap:butt;stroke-width:.75}.st6,.st7{fill:#000;font-family:Calibri;font-size:.75em}.st7{font-size:.666664em}.st8{fill:#fff;stroke:none;stroke-linecap:butt;stroke-width:1}.st9{fill:none}.st10{fill:#000;font-family:Calibri;font-size:.583328em}.st11{fill:none;stroke:#000;stroke-width:.25}.st12{font-size:1em}.st13{fill:none;fill-rule:evenodd;font-size:12px;overflow:visible;stroke-linecap:square;stroke-miterlimit:3}</style><g id="shape4-1" transform="matrix(1,0,0,0.92145913,243.2504,-524.93277)"><title id="title4223">Tabelle.4</title><desc id="desc4225">ATTESTATION OBJECT</desc><rect id="rect4227" width="152" height="20" x="0" y="575.276" fill="none" stroke="none" stroke-width=".25" class="st1"/><text font-stretch="normal" style="line-height:0%;-inkscape-font-specification:'Calibri, Normal';text-align:start" id="text4229" x="4" y="588.28" fill="#000" class="st2" font-family="Calibri" font-size="11.459" font-style="normal" font-variant="normal" font-weight="normal" text-anchor="start" writing-mode="lr-tb">ATTESTATION OBJECT</text></g><g id="g4746" transform="translate(-12.253041,-4.4319509)"><g id="g4727" transform="translate(382.09791,-8.0817938)"><text id="text4549" x="78.589" y="62.388" fill="#000" class="st2" font-family="Calibri" font-size="9.599" transform="scale(1.0417463,0.95992662)" style="line-height:0%">“<tspan id="tspan4547" class="st12" font-size="9.599">authData</tspan>“: ...</text><rect id="rect4556" width="224.886" height="20.896" x="4.817" y="46.117" fill="none" stroke="#000" stroke-dasharray="none" stroke-miterlimit="3" stroke-width=".96" class="st11"/></g><g id="g4734" transform="translate(-212.47294,5.4747629)"><rect id="rect4545" width="101.417" height="20.896" x="238.046" y="32.56" fill="none" stroke="#000" stroke-dasharray="none" stroke-miterlimit="3" stroke-width=".96" class="st11"/><text id="text4564" x="237.498" y="47.687" fill="#000" class="st2" font-family="Calibri" font-size="9.599" transform="scale(1.0417463,0.95992662)" style="line-height:0%">“fmt“: “packed“</text><rect id="rect4571" width="259.924" height="20.896" x="339.464" y="32.56" fill="none" stroke="#000" stroke-dasharray="none" stroke-miterlimit="3" stroke-width=".96" class="st11"/><text id="text4575" x="429.001" y="47.687" fill="#000" class="st2" font-family="Calibri" font-size="9.599" transform="scale(1.0417463,0.95992662)" style="line-height:0%">“<tspan id="tspan4573" class="st12" font-size="9.599">attStmt</tspan>“: ...</text></g></g><rect id="rect4592" width="152" height="20.373" x="177.432" y="82.573" fill="none" stroke="none" stroke-width=".252" class="st1"/><g id="g10917" transform="translate(-84.919659,-9.228886)"><g id="shape60-158" transform="matrix(1,0,0,0.92145913,291.99378,-157.28339)"><title id="title4606">Rechteck.3</title><desc id="desc4608">“sig“: ...</desc><rect id="rect4610" width="101.417" height="22.677" x="0" y="572.598" fill="none" stroke="#000" stroke-width=".25" class="st11"/><text id="text4612" x="4" y="586.94" fill="#000" class="st2" font-family="Calibri" font-size="10" style="line-height:0%">“sig“: ...</text></g><g id="shape61-161" transform="matrix(1,0,0,0.92145913,190.57678,-157.28339)"><title id="title4615">Rechteck.5</title><desc id="desc4617">“alg“: ...</desc><rect id="rect4619" width="101.417" height="22.677" x="0" y="572.598" fill="none" stroke="#000" stroke-width=".25" class="st11"/><text id="text4623" x="4" y="586.94" fill="#000" class="st2" font-family="Calibri" font-size="10" style="line-height:0%">“alg<tspan id="tspan4621" class="st12" font-size="10">“</tspan>: ...</text></g></g><g id="shape62-165" transform="matrix(1,0,0,0.92145913,308.49212,-166.51228)"><title id="title4626">Rechteck.6</title><desc id="desc4628">“x5c“: ...</desc><rect id="rect4630" width="101.417" height="22.677" x="0" y="572.598" fill="none" stroke="#000" stroke-width=".25" class="st11"/><text style="line-height:0%" id="text4632" x="4" y="586.94" fill="#000" class="st2" font-family="Calibri" font-size="10">“x5c“: ...</text></g><rect id="rect4639" width="118.63" height="18.429" x="23.021" y="362.469" fill="none" stroke="none" stroke-width=".25" class="st1" image-rendering="auto"/><g id="shape64-171" transform="matrix(1.1094405,0,0,0.92145913,4.9088972,-174.19356)"><title id="title4644">text150.64</title><desc id="desc4646">If Basic or Privacy CA</desc><rect id="rect4648" width="100.05" height="9.6" x="0" y="585.676" fill="none" stroke="none" stroke-linecap="butt" stroke-width=".75" class="st5"/><text style="line-height:0%" id="text4650" x="0" y="592.88" fill="#000" class="st7" font-family="Calibri" font-size="8">If Basic or Privacy CA:</text></g><rect id="rect4657" width="101.417" height="20.896" x="309.243" y="390.034" fill="none" stroke="#000" stroke-width=".24" class="st11"/><text id="text4659" x="300.69" y="420.084" fill="#000" stroke-width=".96" class="st2" font-family="Calibri" font-size="9.599" transform="scale(1.0417463,0.95992662)" style="line-height:0%">“ecdaaKeyId“: ...</text><g id="shape66-177" transform="matrix(1,0,0,0.92145913,61.192797,-142.96135)"><title id="title4662">text150.66</title><desc id="desc4664">If DAA</desc><rect id="rect4666" width="100.05" height="9.6" x="0" y="585.676" fill="none" stroke="none" stroke-linecap="butt" stroke-width=".75" class="st5"/><text style="line-height:0%" id="text4668" x="0" y="592.88" fill="#000" class="st7" font-family="Calibri" font-size="8">If ECDAA:</text></g><flowRoot id="flowRoot4714" fill="#000" fill-opacity="1" stroke="none" font-family="sans-serif" font-style="normal" font-weight="normal" letter-spacing="0" transform="matrix(1,0,0,0.92145913,-108.87037,10.994883)" word-spacing="0" xml:space="preserve" style="line-height:.01%"><flowRegion id="flowRegion4716"><rect id="rect4718" width="438.211" height="43.419" x="344.94" y="154.476"/></flowRegion><flowPara id="flowPara4720" font-size="40" style="line-height:25"/></flowRoot><flowRoot id="flowRoot4722" fill="#000" fill-opacity="1" stroke="none" font-family="sans-serif" font-style="normal" font-weight="normal" letter-spacing="0" transform="matrix(1,0,0,0.92145913,-108.87037,10.994883)" word-spacing="0" xml:space="preserve" style="line-height:.01%"><flowRegion id="flowRegion4724"><rect id="rect4726" width="393.184" height="40.203" x="347.352" y="161.713"/></flowRegion><flowPara id="flowPara4728" font-size="40" style="line-height:25"/></flowRoot><rect id="rect4444-7-2" width="100.05" height="11.058" x="6.258" y="73.357" fill="none" stroke="none" stroke-linecap="butt" stroke-width=".75" class="st5"/><flowRoot id="flowRoot4736" fill="#000" fill-opacity="1" stroke="none" font-family="sans-serif" font-style="normal" font-weight="normal" letter-spacing="0" transform="translate(-108.87037,-30.19269)" word-spacing="0" xml:space="preserve" style="line-height:.01%"><flowRegion id="flowRegion4738"><rect id="rect4740" width="353.785" height="41.007" x="344.94" y="138.395"/></flowRegion><flowPara id="flowPara4742" font-size="40" style="line-height:25"/></flowRoot><flowRoot id="flowRoot4752" fill="#000" fill-opacity="1" stroke="none" font-family="sans-serif" font-style="normal" font-weight="normal" letter-spacing="0" transform="translate(-108.87037,-30.19269)" word-spacing="0" xml:space="preserve" style="line-height:.01%"><flowRegion id="flowRegion4754"><rect id="rect4756" width="530.677" height="144.73" x="337.704" y="45.125"/></flowRegion><flowPara id="flowPara4758" font-size="40" style="line-height:25"/></flowRoot><g id="g10847" transform="matrix(-1.0361213,0,0,2.4422738,612.18983,-69.37548)"><path id="path10821" fill="none" stroke="#8c8c8c" stroke-linecap="butt" stroke-linejoin="miter" stroke-opacity="1" stroke-width=".621" d="M 116.9284,52.899909 C 75.853189,84.36875 15.887261,57.101096 15.887261,81.894736"/><path id="path10823" fill="none" stroke="#8c8c8c" stroke-linecap="butt" stroke-linejoin="miter" stroke-opacity="1" stroke-width=".691" d="M 116.9284,52.899909 C 189.01472,98.834631 521.89607,40.639793 520.23253,84.440991"/></g><g id="g4988" transform="translate(57.615362,11.731635)"><g id="shape7-4" transform="matrix(1,0,0,0.92145913,81.598191,-347.31762)"><title id="title4232">rect40</title><rect id="rect4234" width="136.063" height="23.228" x="0" y="572.047" fill="none" stroke="#000" stroke-linecap="round" stroke-linejoin="round" stroke-width=".5" class="st3"/></g><g id="shape8-6" transform="matrix(0,0.92145913,-1,0,693.88219,179.80122)"><title id="title4237">line42</title><path id="path4239" stroke="#000" stroke-linecap="round" stroke-linejoin="round" stroke-width=".5" d="M 0,595.28 H 4.65" class="st4"/></g><g id="shape9-9" transform="matrix(0,0.92145913,-1,0,693.88219,196.92378)"><title id="title4242">line44</title><path id="path4244" stroke="#000" stroke-linecap="round" stroke-linejoin="round" stroke-width=".5" d="M 0,595.28 H 4.65" class="st4"/></g><g id="shape10-12" transform="matrix(0,0.92145913,-1,0,710.89019,179.80122)"><title id="title4247">line46</title><path id="path4249" stroke="#000" stroke-linecap="round" stroke-linejoin="round" stroke-width=".5" d="M 0,595.28 H 4.65" class="st4"/></g><g id="shape11-15" transform="matrix(0,0.92145913,-1,0,710.89019,196.92378)"><title id="title4252">line48</title><path id="path4254" stroke="#000" stroke-linecap="round" stroke-linejoin="round" stroke-width=".5" d="M 0,595.28 H 4.65" class="st4"/></g><g id="shape12-18" transform="matrix(0,0.92145913,-1,0,727.89819,179.80122)"><title id="title4257">line50</title><path id="path4259" stroke="#000" stroke-linecap="round" stroke-linejoin="round" stroke-width=".5" d="M 0,595.28 H 4.65" class="st4"/></g><g id="shape13-21" transform="matrix(0,0.92145913,-1,0,727.89819,196.92378)"><title id="title4262">line52</title><path id="path4264" stroke="#000" stroke-linecap="round" stroke-linejoin="round" stroke-width=".5" d="M 0,595.28 H 4.65" class="st4"/></g><g id="shape14-24" transform="matrix(0,0.92145913,-1,0,744.90519,179.80122)"><title id="title4267">line54</title><path id="path4269" stroke="#000" stroke-linecap="round" stroke-linejoin="round" stroke-width=".5" d="M 0,595.28 H 4.65" class="st4"/></g><g id="shape15-27" transform="matrix(0,0.92145913,-1,0,744.90519,196.92378)"><title id="title4272">line56</title><path id="path4274" stroke="#000" stroke-linecap="round" stroke-linejoin="round" stroke-width=".5" d="M 0,595.28 H 4.65" class="st4"/></g><g id="shape16-30" transform="matrix(0,0.92145913,-1,0,761.91319,179.80122)"><title id="title4277">line58</title><path id="path4279" stroke="#000" stroke-linecap="round" stroke-linejoin="round" stroke-width=".5" d="M 0,595.28 H 4.65" class="st4"/></g><g id="shape17-33" transform="matrix(0,0.92145913,-1,0,761.91319,196.92378)"><title id="title4282">line60</title><path id="path4284" stroke="#000" stroke-linecap="round" stroke-linejoin="round" stroke-width=".5" d="M 0,595.28 H 4.65" class="st4"/></g><g id="shape18-36" transform="matrix(0,0.92145913,-1,0,778.92119,179.80122)"><title id="title4287">line62</title><path id="path4289" stroke="#000" stroke-linecap="round" stroke-linejoin="round" stroke-width=".5" d="M 0,595.28 H 4.65" class="st4"/></g><g id="shape19-39" transform="matrix(0,0.92145913,-1,0,778.92119,196.92378)"><title id="title4292">line64</title><path id="path4294" stroke="#000" stroke-linecap="round" stroke-linejoin="round" stroke-width=".5" d="M 0,595.28 H 4.65" class="st4"/></g><g id="shape20-42" transform="matrix(0,0.92145913,-1,0,795.92919,179.80122)"><title id="title4297">line66</title><path id="path4299" stroke="#000" stroke-linecap="round" stroke-linejoin="round" stroke-width=".5" d="M 0,595.28 H 4.65" class="st4"/></g><g id="shape21-45" transform="matrix(0,0.92145913,-1,0,795.92919,196.92378)"><title id="title4302">line68</title><path id="path4304" stroke="#000" stroke-linecap="round" stroke-linejoin="round" stroke-width=".5" d="M 0,595.28 H 4.65" class="st4"/></g><rect id="rect4309" width="115.417" height="20.896" x="13.705" y="134.554" fill="none" stroke="#000" stroke-linecap="round" stroke-linejoin="round" stroke-width=".48" class="st3"/><g id="shape23-50" transform="matrix(1,0,0,0.92145913,39.849051,-397.06996)"><title id="title4312">text72</title><desc id="desc4314">RP ID hash</desc><rect id="rect4316" width="100.05" height="12" x="0" y="583.276" fill="none" stroke="none" stroke-linecap="butt" stroke-width=".75" class="st5"/><text id="text4318" x="0" y="592.28" fill="#000" class="st2" font-family="Calibri" font-size="10" style="line-height:0%">RP ID hash</text></g><g id="shape24-53" transform="matrix(1,0,0,0.92145913,129.12215,-393.07175)"><title id="title4321">rect76</title><rect id="rect4323" width="45.354" height="22.677" x="0" y="572.598" fill="none" stroke="#000" stroke-linecap="round" stroke-linejoin="round" stroke-width=".5" class="st3"/></g><g id="shape25-55" transform="matrix(1,0,0,0.92145913,135.84915,-397.06996)"><title id="title4326">text78</title><desc id="desc4328">FLAGS</desc><rect id="rect4330" width="50.05" height="12" x="0" y="583.276" fill="none" stroke="none" stroke-linecap="butt" stroke-width=".75" class="st5"/><text id="text4332" x="0" y="592.28" fill="#000" class="st2" font-family="Calibri" font-size="10" style="line-height:0%">FLAGS</text></g><g id="shape26-58" transform="matrix(1,0,0,0.92145913,121.58719,-352.57086)"><title id="title4335">text82</title><desc id="desc4337">0</desc><rect id="rect4339" width="9.05" height="10.8" x="0" y="584.476" fill="none" stroke="none" stroke-linecap="butt" stroke-width=".75" class="st5"/><text id="text4341" x="0" y="592.58" fill="#000" class="st6" font-family="Calibri" font-size="9" style="line-height:0%">0</text></g><g id="shape27-61" transform="matrix(1,0,0,0.92145913,138.59519,-352.57086)"><title id="title4344">text86</title><desc id="desc4346">0</desc><rect id="rect4348" width="9.05" height="10.8" x="0" y="584.476" fill="none" stroke="none" stroke-linecap="butt" stroke-width=".75" class="st5"/><text id="text4350" x="0" y="592.58" fill="#000" class="st6" font-family="Calibri" font-size="9" style="line-height:0%">0</text></g><g id="shape28-64" transform="matrix(1,0,0,0.92145913,155.60319,-352.57086)"><title id="title4353">text90</title><desc id="desc4355">0</desc><rect id="rect4357" width="9.05" height="10.8" x="0" y="584.476" fill="none" stroke="none" stroke-linecap="butt" stroke-width=".75" class="st5"/><text id="text4359" x="0" y="592.58" fill="#000" class="st6" font-family="Calibri" font-size="9" style="line-height:0%">0</text></g><rect id="rect4366" width="9.05" height="9.952" x="172.611" y="186" fill="none" stroke="none" stroke-linecap="butt" stroke-width=".75" class="st5"/><text font-stretch="normal" style="line-height:0%;-inkscape-font-specification:'Calibri, Normal';text-align:start" id="text4368" x="161.423" y="202.123" fill="#000" class="st6" font-family="Calibri" font-size="9" font-style="normal" font-variant="normal" font-weight="normal" text-anchor="start" transform="scale(1.0417463,0.95992662)" writing-mode="lr-tb"><tspan style="line-height:1.25" id="tspan4132" x="161.423" y="202.123" font-size="8.639">UV</tspan></text><g id="shape30-70" transform="matrix(1,0,0,0.92145913,189.61919,-352.57086)"><title id="title4371">text98</title><desc id="desc4373">0</desc><rect id="rect4375" width="9.05" height="10.8" x="0" y="584.476" fill="none" stroke="none" stroke-linecap="butt" stroke-width=".75" class="st5"/><text id="text4377" x="0" y="592.58" fill="#000" class="st6" font-family="Calibri" font-size="9" style="line-height:0%">0</text></g><g id="shape31-73" transform="matrix(1,0,0,0.92145913,101.16419,-352.57086)"><title id="title4380">text102</title><desc id="desc4382">AT</desc><rect id="rect4384" width="18.05" height="10.8" x="0" y="584.476" fill="none" stroke="none" stroke-linecap="butt" stroke-width=".75" class="st5"/><text id="text4386" x="0" y="592.58" fill="#000" class="st6" font-family="Calibri" font-size="9" style="line-height:0%">AT</text></g><g id="shape32-76" transform="matrix(1,0,0,0.92145913,84.156191,-352.39118)"><title id="title4389">text106</title><desc id="desc4391">ED</desc><rect id="rect4393" width="18.05" height="10.8" x="0" y="584.476" fill="none" stroke="none" stroke-linecap="butt" stroke-width=".75" class="st5"/><text id="text4395" x="0" y="592.58" fill="#000" class="st6" font-family="Calibri" font-size="9" style="line-height:0%">ED</text></g><rect id="rect4402" width="24.05" height="8.846" x="201.36" y="186.595" fill="none" stroke="none" stroke-linecap="butt" stroke-width=".75" class="st5"/><text font-stretch="normal" style="line-height:0%;-inkscape-font-specification:'Calibri, Normal';text-align:start" id="text4404" x="194.893" y="200.721" fill="#000" class="st7" font-family="Calibri" font-size="8" font-style="normal" font-variant="normal" font-weight="normal" text-anchor="start" transform="scale(1.0417463,0.95992662)" writing-mode="lr-tb"><tspan style="line-height:1.25" id="tspan4126" x="194.893" y="200.721" font-size="7.679">UP</tspan></text><g id="shape34-82" transform="matrix(1,0,0,0.92145913,174.47615,-393.07175)"><title id="title4407">rect114</title><rect id="rect4409" width="101.417" height="22.677" x="0" y="572.598" fill="none" stroke="#000" stroke-linecap="round" stroke-linejoin="round" stroke-width=".5" class="st3"/></g><g id="shape35-84" transform="matrix(1,0,0,0.92145913,201.18015,-397.06996)"><title id="title4412">text116</title><desc id="desc4414">COUNTER</desc><rect id="rect4416" width="70.05" height="12" x="0" y="583.276" fill="none" stroke="none" stroke-linecap="butt" stroke-width=".75" class="st5"/><text id="text4418" x="0" y="592.28" fill="#000" class="st2" font-family="Calibri" font-size="10" style="line-height:0%">COUNTER</text></g><g id="shape36-87" transform="matrix(1,0,0,0.92145913,275.89315,-393.07175)"><title id="title4421">rect120</title><rect id="rect4423" width="130" height="22.677" x="0" y="572.598" fill="none" stroke="#000" stroke-linecap="round" stroke-linejoin="round" stroke-width=".5" class="st3"/></g><g id="shape37-89" transform="matrix(1,0,0,0.92145913,290.18015,-397.06996)"><title id="title4426">text122</title><desc id="desc4428">ATTESTATION DATA</desc><rect id="rect4430" width="160.05" height="12" x="0" y="583.276" fill="none" stroke="none" stroke-linecap="butt" stroke-width=".75" class="st5"/><text id="text4432" x="-6" y="592.28" fill="#000" class="st2" font-family="Calibri" font-size="10" style="line-height:0%">ATTESTED CRED. DATA</text></g><rect id="rect4437" width="134.471" height="20.896" x="405.893" y="134.554" fill="none" stroke="#000" stroke-linecap="round" stroke-linejoin="round" stroke-width=".48" class="st3"/><g id="shape39-94" transform="matrix(1,0,0,0.92145913,434.48715,-397.06996)"><title id="title4440">text128</title><desc id="desc4442">EXTENSIONS</desc><rect id="rect4444" width="100.05" height="12" x="0" y="583.276" fill="none" stroke="none" stroke-linecap="butt" stroke-width=".75" class="st5"/><text id="text4446" x="0" y="592.28" fill="#000" class="st2" font-family="Calibri" font-size="10" style="line-height:0%">EXTENSIONS</text></g><g id="shape40-97" transform="matrix(1,0,0,0.92145913,504.94815,-390.46033)"><title id="title4449">path132</title><path id="path4451" fill="#fff" stroke="none" stroke-linecap="butt" stroke-width="1" d="m 0,566.93 2.83,9.45 -2.83,9.45 2.83,9.45 H 8.5 l -2.83,-9.45 2.83,-9.45 -2.83,-9.45 z" class="st8"/></g><g id="shape41-99" transform="matrix(1,0,0,0.92145913,504.94815,-390.46033)"><title id="title4454">path134</title><path id="path4456" fill="none" d="m 0,566.93 2.83,9.45 -2.83,9.45 2.83,9.45 z" class="st9"/><path id="path4458" stroke="#000" stroke-linecap="round" stroke-linejoin="round" stroke-width=".5" d="m 0,566.93 2.83,9.45 -2.83,9.45 2.83,9.45" class="st4"/></g><g id="shape42-102" transform="matrix(1,0,0,0.92145913,510.61815,-390.46033)"><title id="title4461">path136</title><path id="path4463" fill="none" d="m 0,566.93 2.83,9.45 -2.83,9.45 2.83,9.45 z" class="st9"/><path id="path4465" stroke="#000" stroke-linecap="round" stroke-linejoin="round" stroke-width=".5" d="m 0,566.93 2.83,9.45 -2.83,9.45 2.83,9.45" class="st4"/></g><g id="shape43-105" transform="matrix(1,0,0,0.92145913,43.313954,-415.03209)"><title id="title4468">text138</title><desc id="desc4470">32 bytes</desc><rect id="rect4472" width="64.05" height="9.6" x="0" y="585.676" fill="none" stroke="none" stroke-linecap="butt" stroke-width=".75" class="st5"/><text id="text4474" x="0" y="592.88" fill="#000" class="st7" font-family="Calibri" font-size="8" style="line-height:0%">32 bytes</text></g><g id="shape44-108" transform="matrix(1,0,0,0.92145913,139.20682,-414.47593)"><title id="title4477">text142</title><desc id="desc4479">1 byte</desc><rect id="rect4481" width="48.05" height="9.6" x="0" y="585.676" fill="none" stroke="none" stroke-linecap="butt" stroke-width=".75" class="st5"/><text id="text4483" x="0" y="592.88" fill="#000" class="st7" font-family="Calibri" font-size="8" style="line-height:0%">1 byte</text></g><g id="shape45-111" transform="matrix(1,0,0,0.92145913,174.58115,-414.47593)"><title id="title4486">text146</title><desc id="desc4488">4 bytes (big-endian uint32)</desc><rect id="rect4490" width="216.05" height="9.6" x="0" y="585.676" fill="none" stroke="none" stroke-linecap="butt" stroke-width=".75" class="st5"/><text id="text4492" x="6.674" y="593.484" fill="#000" class="st7" font-family="Calibri" font-size="8" style="line-height:0%">4 bytes <tspan id="tspan4017" font-size="6.25">(big-endian uint32)</tspan></text></g><g id="shape46-114" transform="matrix(0.94538871,0,0,0.92145913,287.05365,-413.91976)"><title id="title4495">text150</title><desc id="desc4497">variable length (if present)</desc><rect id="rect4499" width="224.05" height="9.6" x="0" y="585.676" fill="none" stroke="none" stroke-linecap="butt" stroke-width=".75" class="st5"/><text id="text4501" x="26.473" y="592.276" fill="#000" class="st7" font-family="Calibri" font-size="8" style="line-height:0%">variable length</text></g><g id="shape47-117" transform="matrix(0.99992555,0.01220251,-0.01124411,0.92139052,417.65907,-414.95338)"><title id="title4504">text154</title><desc id="desc4506">variable length (CBOR)</desc><rect id="rect4508" width="176.05" height="9.6" x="0" y="585.676" fill="none" stroke="none" stroke-linecap="butt" stroke-width=".75" class="st5"/><text id="text4510" x="-1.668" y="592.902" fill="#000" class="st7" font-family="Calibri" font-size="8" style="line-height:0%">variable length if present (CBOR)</text></g><g id="shape51-129" transform="matrix(1,0,0,0.92145913,80.348021,-337.06245)"><title id="title4532">text166</title><desc id="desc4534">7</desc><rect id="rect4536" width="7.05" height="8.4" x="0" y="586.876" fill="none" stroke="none" stroke-linecap="butt" stroke-width=".75" class="st5"/><text id="text4538" x="0" y="593.18" fill="#000" class="st10" font-family="Calibri" font-size="7" style="line-height:0%">7</text></g><text style="line-height:0%" id="text4594" x="183.116" y="110.549" fill="#000" stroke-width="1.009" class="st2" font-family="Calibri" font-size="10.093" transform="scale(0.99080456,1.0092808)">AUTHENTICATOR DATA</text><flowRoot font-family="sans-serif" style="line-height:.01%" id="flowRoot3695" fill="#000" fill-opacity="1" stroke="none" stroke-linecap="butt" stroke-linejoin="miter" stroke-opacity="1" stroke-width="1" font-style="normal" font-weight="normal" letter-spacing="0" transform="matrix(1,0,0,0.92145913,487.04245,-130.03124)" word-spacing="0" xml:space="preserve"><flowRegion id="flowRegion3697"><rect id="rect3699" width="684.78" height="72.997" x="9.733" y="279.222"/></flowRegion><flowPara id="flowPara3701" font-size="40" style="line-height:1.25"/></flowRoot><g id="shape36-87-1" transform="matrix(0.62480125,0,0,0.92585265,183.77398,-272.76165)"><title id="title4421-4">rect120</title><rect id="rect4423-0" width="130" height="22.677" x="0" y="572.598" fill="none" stroke="#000" stroke-linecap="round" stroke-linejoin="round" stroke-width=".5" class="st3"/></g><g id="shape39-94-5" transform="matrix(1,0,0,0.92145913,219.06021,-275.27595)"><title id="title4440-5">text128</title><desc id="desc4442-7">EXTENSIONS</desc><rect id="rect4444-7" width="100.05" height="12" x="0" y="583.276" fill="none" stroke="none" stroke-linecap="butt" stroke-width=".75" class="st5"/><text id="text4446-3" x="-8.461" y="592.28" fill="#000" class="st2" font-family="Calibri" font-size="10" style="line-height:0%">AAGUID</text></g><g id="shape36-87-1-3" transform="matrix(0.17344679,0,0,0.93370993,264.93298,-277.34982)"><title id="title4421-4-1">rect120</title><rect id="rect4423-0-9" width="130" height="22.677" x="0" y="572.598" fill="none" stroke="#000" stroke-linecap="round" stroke-linejoin="round" stroke-width=".5" class="st3"/></g><g id="shape39-94-5-3" transform="matrix(1.0318156,0,0,0.92145913,278.1943,-274.95641)"><title id="title4440-5-7">text128</title><desc id="desc4442-7-7">EXTENSIONS</desc><rect id="rect4444-7-5" width="100.05" height="12" x="0" y="583.276" fill="none" stroke="none" stroke-linecap="butt" stroke-width=".75" class="st5"/><text id="text4446-3-7" x="-5.817" y="592.854" fill="#000" class="st2" font-family="Calibri" font-size="10" style="line-height:0%">L</text></g><g id="shape36-87-4" transform="matrix(0.61988331,0,0,0.92594885,287.39369,-272.96702)"><title id="title4421-1">rect120</title><rect id="rect4423-5" width="130" height="22.677" x="0" y="572.598" fill="none" stroke="#000" stroke-linecap="round" stroke-linejoin="round" stroke-width=".5" class="st3"/></g><text style="line-height:0%" id="text4446-3-1" x="277.638" y="282.718" fill="#000" class="st2" font-family="Calibri" font-size="9.599" transform="scale(1.0417463,0.95992662)">CREDENTIAL ID</text><text style="line-height:0%" id="text4446-3-1-9" x="356.254" y="282.896" fill="#000" stroke-width="1" class="st2" font-family="Calibri" font-size="9.599" transform="scale(1.0417463,0.95992662)">CREDENTIAL PUBLIC KEY</text><g id="shape36-87-9" transform="matrix(1.0000627,0,0,0.92146272,367.96197,-270.41437)"><title id="title4421-5">rect120</title><rect id="rect4423-8" width="130" height="22.677" x="0" y="572.598" fill="none" stroke="#000" stroke-linecap="round" stroke-linejoin="round" stroke-width=".5" class="st3"/></g><g id="shape47-117-2" transform="matrix(1,0,0,0.92145913,306.4357,-257.27537)"><title id="title4504-4">text154</title><desc id="desc4506-6">variable length (CBOR)</desc><rect id="rect4508-4" width="176.05" height="9.6" x="0" y="585.676" fill="none" stroke="none" stroke-linecap="butt" stroke-width=".75" class="st5"/><text font-stretch="normal" style="line-height:0%;-inkscape-font-specification:'Calibri, Normal';text-align:start" id="text4510-3" x="75.822" y="591.024" fill="#000" class="st7" font-family="Calibri" font-size="8" font-style="normal" font-variant="normal" font-weight="normal" text-anchor="start" writing-mode="lr-tb"><tspan style="line-height:1.25" id="tspan4137" x="75.822" y="591.024" font-size="8">variable length (COSE_Key)</tspan></text><text id="text4510-3-9" x="-1.933" y="591.297" fill="#000" stroke-width="1" class="st7" font-family="Calibri" font-size="8" style="line-height:0%">LENGTH L</text><text id="text4510-3-5" x="-11.054" y="599.959" fill="#000" stroke-width="1" class="st7" font-family="Calibri" font-size="8" style="line-height:0%">(variable length)</text></g><g id="shape44-108-3" transform="matrix(1,0,0,0.92145913,222.92083,-246.40181)"><title id="title4477-0">text142</title><desc id="desc4479-0">1 byte</desc><rect id="rect4481-4" width="48.05" height="9.6" x="0" y="585.676" fill="none" stroke="none" stroke-linecap="butt" stroke-width=".75" class="st5"/><text id="text4483-1" x="39.336" y="578.032" fill="#000" class="st7" font-family="Calibri" font-size="8" style="line-height:0%">2 bytes</text><text id="text4483-1-9" x="-13.98" y="578.256" fill="#000" stroke-width="1" class="st7" font-family="Calibri" font-size="8" style="line-height:0%">16 bytes</text></g><g id="g4007" transform="matrix(1,0,0,0.92145913,212.71563,-439.39706)"><title id="title4009">text166</title><desc id="desc4011">7</desc><rect id="rect4013" width="7.05" height="8.4" x="3.893" y="697.33" fill="none" stroke="none" stroke-linecap="butt" stroke-width=".75" class="st5"/><text style="line-height:0%" id="text4015" x="3.893" y="703.634" fill="#000" class="st10" font-family="Calibri" font-size="7">0</text></g><g id="g10865" transform="translate(1.6684991,5.5616637)"><path id="path10801" fill="none" stroke="#8c8c8c" stroke-linecap="butt" stroke-linejoin="miter" stroke-opacity="1" stroke-width=".8" d="m 339.23821,172.20997 c -19.66726,-18.35349 -63.91861,0 -63.91861,-14.46033"/><path id="path10803" fill="none" stroke="#8c8c8c" stroke-linecap="butt" stroke-linejoin="miter" stroke-opacity="1" stroke-width=".8" d="m 339.72812,172.20997 c 19.66726,-18.35349 63.91861,0 63.91861,-14.46033"/></g><g id="g10861" transform="translate(1.6684991,5.5616637)"><path id="path10815" fill="none" stroke="#8c8c8c" stroke-linecap="butt" stroke-linejoin="miter" stroke-opacity="1" stroke-width=".8" d="m 339.71567,231.42849 c -48.31052,18.35349 -157.00923,0 -157.00923,14.46033"/><path id="path10817" fill="none" stroke="#8c8c8c" stroke-linecap="butt" stroke-linejoin="miter" stroke-opacity="1" stroke-width=".8" d="m 339.71567,231.42849 c 48.31053,18.35349 158.21264,0 158.21264,14.46033"/></g><g id="g10857" transform="translate(1.6684991,5.5616637)"><path id="path10829" fill="none" stroke="#8c8c8c" stroke-linecap="butt" stroke-linejoin="miter" stroke-opacity="1" stroke-width=".8" d="m 149.28306,154.12136 c -21.62209,18.35349 -70.271803,0 -70.271803,14.46033"/><path id="path10831" fill="none" stroke="#8c8c8c" stroke-linecap="butt" stroke-linejoin="miter" stroke-opacity="1" stroke-width=".8" d="m 149.82166,154.12136 c 21.62209,18.35349 70.2718,0 70.2718,14.46033"/></g><path id="path10839" fill="#000" fill-opacity=".188" stroke="#8c8c8c" stroke-dasharray="2.64 .88" stroke-dashoffset="0" stroke-linecap="butt" stroke-linejoin="miter" stroke-miterlimit="2.4" stroke-opacity="1" stroke-width=".88" d="m 340.92999,182.22096 0.55617,50.61113"/></g><g id="g10889" transform="matrix(-0.99455392,0,0,1,604.03397,-1.9987232)"><path id="path10871" fill="none" stroke="#8c8c8c" stroke-linecap="butt" stroke-linejoin="miter" stroke-opacity="1" stroke-width=".802" d="m 554.30565,322.10675 c 12.75093,26.31597 49.0423,4.95336 49.0423,25.68716"/><path id="path10873" fill="none" stroke="#8c8c8c" stroke-linecap="butt" stroke-linejoin="miter" stroke-opacity="1" stroke-width=".802" d="m 554.07676,322.68543 c -64.8064,46.09955 -368.04963,-13.76687 -366.40593,22.9448"/></g><g id="g5022" transform="matrix(1,0,0,1.3285155,0,-19.173732)"><g id="g5017" transform="translate(-0.260703)"><path id="path4748" fill="none" stroke="#8c8c8c" stroke-linecap="butt" stroke-linejoin="miter" stroke-opacity="1" stroke-width=".975" d="M 51.078383,84.264422 C 70.907411,53.279458 114.11909,74.618817 114.73667,58.364778"/><path id="path4750" fill="none" stroke="#8c8c8c" stroke-linecap="butt" stroke-linejoin="miter" stroke-opacity="1" stroke-width=".767" d="M 51.078383,84.264422 C 92.937569,47.635631 377.99205,103.69762 374.66208,58.364778"/></g></g><path id="path10901" fill="none" stroke="#8c8c8c" stroke-dasharray="2.331 .777" stroke-dashoffset="0" stroke-linecap="butt" stroke-linejoin="miter" stroke-miterlimit="3" stroke-opacity="1" stroke-width=".777" d="m 51.078383,93.934989 1.66873,226.173041"/><rect id="rect10913" width="100.05" height="11.058" x="24.02" y="398.676" fill="none" stroke="none" stroke-linecap="butt" stroke-width=".75" class="st5"/><g id="g12180" transform="translate(-127.1883,-8.6727196)"><g id="shape58-155" transform="matrix(1,0,0,0.92145913,227.9949,-180.11675)"><title id="title4597">Tabelle.58</title><desc id="desc4599">ATTESTATION STATEMENT</desc><rect id="rect4601" width="152" height="20" x="0" y="575.276" fill="none" stroke="none" stroke-width=".25" class="st1"/><text id="text4603" x="4" y="588.28" fill="#000" class="st2" font-family="Calibri" font-size="10" style="line-height:0%">ATTESTATION STATEMENT</text></g><text id="text10915" x="352.179" y="376.217" fill="#000" class="st2" font-family="Calibri" font-size="9.599" transform="scale(1.0417463,0.95992663)" style="line-height:0%"><tspan id="tspan4706" font-size="8">(in &quot;packed&quot; attestation statement format)</tspan></text></g><g id="g10930" transform="translate(-84.363492,19.691765)"><g id="g10932" transform="matrix(1,0,0,0.92145913,291.99378,-157.28339)"><title id="title10934">Rechteck.3</title><desc id="desc10936">“sig“: ...</desc><rect id="rect10938" width="101.417" height="22.677" x="0" y="572.598" fill="none" stroke="#000" stroke-width=".25" class="st11"/><text style="line-height:0%" id="text10940" x="4" y="586.94" fill="#000" class="st2" font-family="Calibri" font-size="10">“sig“: ...</text></g><g id="g10942" transform="matrix(1,0,0,0.92145913,190.57678,-157.28339)"><title id="title10944">Rechteck.5</title><desc id="desc10946">“alg“: ...</desc><rect id="rect10948" width="101.417" height="22.677" x="0" y="572.598" fill="none" stroke="#000" stroke-width=".25" class="st11"/><text style="line-height:0%" id="text10950" x="4" y="586.94" fill="#000" class="st2" font-family="Calibri" font-size="10">“alg<tspan id="tspan10952" class="st12" font-size="10">“</tspan>: ...</text></g></g><rect id="rect10960" width="100.05" height="8.846" x="28.72" y="419.518" fill="none" stroke="none" stroke-linecap="butt" stroke-width=".72" class="st5" image-rendering="auto"/><flowRoot font-style="normal" style="line-height:.01%;-inkscape-font-specification:'sans-serif, Normal';text-align:start" id="flowRoot10992" fill="#000" fill-opacity="1" stroke="none" stroke-linecap="butt" stroke-linejoin="miter" stroke-opacity="1" stroke-width="1" font-family="sans-serif" font-stretch="normal" font-variant="normal" font-weight="normal" image-rendering="auto" letter-spacing="0" text-anchor="start" transform="matrix(0.8,0,0,0.8,3.5107972,15.798593)" word-spacing="0" writing-mode="lr-tb" xml:space="preserve"><flowRegion id="flowRegion10994"><rect font-stretch="normal" style="line-height:125%;-inkscape-font-specification:'sans-serif, Normal';text-align:start" id="rect10996" width="494.988" height="15.295" x="31.98" y="500.993" font-family="sans-serif" font-size="40" font-style="normal" font-variant="normal" font-weight="normal" text-anchor="start" writing-mode="lr-tb"/></flowRegion><flowPara style="line-height:1.25" id="flowPara11000" font-size="11.25" opacity="1">[Other attestation statement formats are as defined in their respective sections below]</flowPara></flowRoot></svg>